<svg width="24" height="24" viewBox="0 0 24 24" fill="none" xmlns="http://www.w3.org/2000/svg">
<path d="M1.5 3.02109L19.7564 21.2995L20.827 20.2463L2.57109 1.96875L1.5 3.02109Z" fill="#F2F2F2"/>
<path d="M2.93766 9.04247C2.91141 11.6501 3.86438 14.0553 5.85141 16.3962C7.73813 18.619 10.2839 20.1308 12.2953 21.4686L12.7172 21.7498L13.1391 21.4686C14.0058 20.892 14.9719 20.2826 15.9417 19.5987L3.36282 6.99731C3.08867 7.64465 2.94422 8.3395 2.93766 9.04247Z" fill="#F2F2F2"/>
<path d="M19.5858 16.3964C21.5729 14.0555 22.5258 11.6503 22.4996 9.04265C22.4701 6.1364 20.1272 3.76733 17.2763 3.76733C15.0141 3.76733 13.5099 5.07983 12.7186 6.0253C11.9274 5.07843 10.4218 3.76733 8.16099 3.76733C7.66457 3.7676 7.17087 3.84073 6.69568 3.98437L19.3519 16.6631C19.4321 16.5745 19.5099 16.4859 19.5858 16.3964Z" fill="#F2F2F2"/>
</svg>
