<svg width="37" height="37" viewBox="0 0 37 37" fill="none" xmlns="http://www.w3.org/2000/svg">
<circle cx="18.7468" cy="18.0258" r="18.0258" fill="#9D0000"/>
<path d="M21.9403 27.3991C21.6012 27.3991 21.3267 27.1256 21.3267 26.7876C21.3267 26.5332 20.8276 25.9206 19.834 25.6065C19.6039 25.5336 19.438 25.3336 19.4098 25.0947C19.3816 24.8564 19.4967 24.6229 19.7034 24.4993C20.2739 24.1578 20.6142 23.56 20.6142 22.9001C20.6142 21.8712 19.7765 21.034 18.7465 21.034C17.7164 21.034 16.8787 21.8712 16.8787 22.9001C16.8787 23.56 17.2196 24.1578 17.7901 24.4993C17.9968 24.6229 18.1119 24.8564 18.0837 25.0947C18.0556 25.3336 17.8896 25.5336 17.6601 25.6065C16.666 25.9206 16.1668 26.5332 16.1668 26.7876C16.1668 27.1256 15.8924 27.3991 15.5532 27.3991C15.214 27.3991 14.9396 27.1256 14.9396 26.7876C14.9396 26.0764 15.4873 25.3533 16.3484 24.8534C15.9019 24.3118 15.6515 23.6287 15.6515 22.9001C15.6515 21.1971 17.0399 19.811 18.7465 19.811C20.453 19.811 21.8414 21.1971 21.8414 22.9001C21.8414 23.6287 21.591 24.3118 21.1451 24.8528C22.0062 25.3533 22.5539 26.0764 22.5539 26.7876C22.5539 27.1256 22.2795 27.3991 21.9403 27.3991ZM14.6903 25.5647C14.6903 24.5823 13.8214 23.5421 12.5193 22.8715C13.254 22.1101 13.6716 21.0949 13.6716 20.0027C13.6716 17.7114 11.8039 15.8477 9.50824 15.8477C7.21261 15.8477 5.34484 17.7114 5.34484 20.0027C5.34484 21.0949 5.76249 22.1101 6.49654 22.8715C5.19503 23.5427 4.32616 24.5823 4.32616 25.5647C4.32616 25.9026 4.6006 26.1761 4.93976 26.1761C5.27892 26.1761 5.55337 25.9026 5.55337 25.5647C5.55337 25.0583 6.35932 24.1028 7.87356 23.6239C8.10306 23.551 8.26904 23.351 8.29721 23.1121C8.32537 22.8733 8.21032 22.6404 8.00359 22.5168C7.10715 21.9805 6.57204 21.0406 6.57204 20.0027C6.57204 18.3862 7.88914 17.0707 9.50824 17.0707C11.1273 17.0707 12.4444 18.3862 12.4444 20.0027C12.4444 21.0406 11.9093 21.9805 11.0123 22.5168C10.8056 22.6404 10.6905 22.8733 10.7187 23.1121C10.7468 23.351 10.9128 23.551 11.1423 23.6239C12.6566 24.1022 13.4631 25.0583 13.4631 25.5647C13.4631 25.9026 13.7376 26.1761 14.0767 26.1761C14.4159 26.1761 14.6903 25.9026 14.6903 25.5647ZM33.1674 25.5647C33.1674 24.5823 32.2985 23.5427 30.997 22.8715C31.731 22.1101 32.1487 21.0949 32.1487 20.0027C32.1487 17.7114 30.2809 15.8477 27.9853 15.8477C25.6897 15.8477 23.8219 17.7114 23.8219 20.0027C23.8219 21.0949 24.2395 22.1101 24.9742 22.8715C23.6721 23.5421 22.8032 24.5823 22.8032 25.5647C22.8032 25.9026 23.0776 26.1761 23.4168 26.1761C23.756 26.1761 24.0304 25.9026 24.0304 25.5647C24.0304 25.0583 24.837 24.1022 26.3512 23.6239C26.5807 23.551 26.7467 23.351 26.7748 23.1121C26.803 22.8733 26.688 22.6404 26.4812 22.5168C25.5842 21.9805 25.0491 21.0406 25.0491 20.0027C25.0491 18.3862 26.3662 17.0707 27.9853 17.0707C29.6044 17.0707 30.9215 18.3862 30.9215 20.0027C30.9215 21.0406 30.3864 21.9805 29.4899 22.5168C29.2832 22.6404 29.1681 22.8733 29.1963 23.1121C29.2245 23.351 29.3905 23.551 29.62 23.6239C31.1342 24.1028 31.9402 25.0583 31.9402 25.5647C31.9402 25.9026 32.2146 26.1761 32.5538 26.1761C32.8929 26.1761 33.1674 25.9026 33.1674 25.5647ZM19.0563 18.3241C19.2546 18.2083 23.9124 15.4524 23.8962 12.1495C23.8866 10.1485 22.6564 8.8777 21.5041 8.69855C20.1426 8.48955 19.266 9.02221 18.7465 9.6964C18.2275 9.02221 17.3503 8.48895 15.9894 8.69855C14.8371 8.8777 13.6069 10.1485 13.5973 12.1495C13.5812 15.4524 18.2383 18.2083 18.4361 18.3241C18.5319 18.3797 18.6392 18.4077 18.7465 18.4077C18.8537 18.4077 18.961 18.3797 19.0563 18.3241ZM18.1412 11.2663C18.1904 11.5595 18.4445 11.7733 18.7429 11.7757C18.7441 11.7757 18.7453 11.7757 18.7471 11.7757C19.0437 11.7757 19.2983 11.5619 19.3511 11.2705C19.4002 10.9994 19.7202 9.65699 21.3147 9.9072C21.736 9.97229 22.6618 10.6298 22.669 12.1555C22.6786 14.1428 20.0779 16.2233 18.7459 17.0779C17.4144 16.2251 14.815 14.1482 14.8245 12.1555C14.8317 10.6298 15.7575 9.97229 16.1788 9.9072C16.3118 9.8863 16.4359 9.87674 16.5515 9.87674C17.8201 9.87674 18.0969 11.0215 18.1412 11.2663Z" fill="#F2F2F2"/>
</svg>
