<svg width="37" height="37" viewBox="0 0 37 37" fill="none" xmlns="http://www.w3.org/2000/svg">
<circle cx="18.0258" cy="18.0258" r="18.0258" fill="#9D0000"/>
<path d="M24.2703 10H11.381C10.6183 10 10 10.6266 10 11.3994V24.4606C10 25.2334 10.6183 25.86 11.381 25.86H24.2703C25.033 25.86 25.6513 25.2334 25.6513 24.4606V11.3994C25.6513 10.6266 25.033 10 24.2703 10ZM24.7306 24.4238C24.7306 24.7627 24.4559 25.0375 24.1169 25.0375H11.5344C11.1955 25.0375 10.9207 24.7627 10.9207 24.4238V15.1312H24.7306V24.4238ZM24.7306 14.1982H10.9207V11.5344C10.9207 11.1955 11.1955 10.9207 11.5344 10.9207H24.1169C24.4559 10.9207 24.7306 11.1955 24.7306 11.5344V14.1982Z" fill="#F2F2F2"/>
<path d="M19.667 12.3324H18.7463V13.2653H19.667V12.3324Z" fill="#F2F2F2"/>
<path d="M21.5083 12.3324H20.5877V13.2653H21.5083V12.3324Z" fill="#F2F2F2"/>
<path d="M23.3497 12.3324H22.429V13.2653H23.3497V12.3324Z" fill="#F2F2F2"/>
<path d="M20.9132 21.9916L23.0799 19.7959L20.9132 17.6001L20.2621 18.2599L21.7781 19.7959L20.2621 21.3319L20.9132 21.9916Z" fill="#F2F2F2"/>
<path d="M19.1929 16.1765L18.2996 15.9503L16.4586 23.4135L17.3519 23.6397L19.1929 16.1765Z" fill="#F2F2F2"/>
<path d="M15.3892 21.3319L13.8732 19.7959L15.3892 18.2599L14.7381 17.6001L12.5714 19.7959L14.7381 21.9916L15.3892 21.3319Z" fill="#F2F2F2"/>
</svg>
