<svg width="37" height="37" viewBox="0 0 37 37" fill="none" xmlns="http://www.w3.org/2000/svg">
<circle cx="18.0258" cy="18.9742" r="18.0258" fill="#9D0000"/>
<path d="M23.794 23.9313C23.794 24.4793 23.3506 24.9227 22.8026 24.9227C22.2545 24.9227 21.8112 24.4793 21.8112 23.9313C21.8112 23.3832 22.2545 22.9398 22.8026 22.9398C23.3506 22.9398 23.794 23.3832 23.794 23.9313ZM22.8026 20.957C23.3506 20.957 23.794 20.5136 23.794 19.9656C23.794 19.4175 23.3506 18.9742 22.8026 18.9742C22.2545 18.9742 21.8112 19.4175 21.8112 19.9656C21.8112 20.5136 22.2545 20.957 22.8026 20.957ZM20.8197 20.957C20.2717 20.957 19.8283 21.4004 19.8283 21.9484C19.8283 22.4965 20.2717 22.9398 20.8197 22.9398C21.3678 22.9398 21.8112 22.4965 21.8112 21.9484C21.8112 21.4004 21.3678 20.957 20.8197 20.957ZM24.7854 20.957C24.2374 20.957 23.794 21.4004 23.794 21.9484C23.794 22.4965 24.2374 22.9398 24.7854 22.9398C25.3335 22.9398 25.7768 22.4965 25.7768 21.9484C25.7768 21.4004 25.3335 20.957 24.7854 20.957ZM27.7597 21.9484C27.7597 24.6865 25.5407 26.9055 22.8026 26.9055C21.1858 26.9055 19.7645 26.1203 18.8591 24.9227H16.8319C15.9265 26.1203 14.5052 26.9055 12.8884 26.9055C10.1503 26.9055 7.93133 24.6865 7.93133 21.9484C7.93133 19.2103 10.1503 16.9913 12.8884 16.9913H15.8627C15.8627 16.4433 16.306 15.9999 16.8541 15.9999H17.3498C17.3498 15.1426 17.8677 13.5214 19.8283 13.5214H23.794C24.0399 13.5184 25.2811 13.4337 25.2811 12.0343V11.0428H26.2725V12.0343C26.2725 13.9949 24.6508 14.5128 23.794 14.5128H19.8283C18.4342 14.5128 18.3448 15.7451 18.3412 15.9999H18.8369C19.385 15.9999 19.8283 16.4433 19.8283 16.9913H22.8026C25.5407 16.9913 27.7597 19.2103 27.7597 21.9484ZM26.7682 21.9484C26.7682 19.762 24.9886 17.9828 22.8026 17.9828H12.8884C10.7023 17.9828 8.92274 19.762 8.92274 21.9484C8.92274 24.1351 10.7023 25.9141 12.8884 25.9141C14.1287 25.9141 15.4046 25.3274 16.3389 23.9313H19.3518C20.3914 25.344 21.5623 25.9141 22.8026 25.9141C24.9886 25.9141 26.7682 24.1351 26.7682 21.9484ZM15.8627 21.9484C15.8627 22.7685 15.1956 23.4356 14.3755 23.4356C14.3755 24.2557 13.7085 24.9227 12.8884 24.9227C12.0683 24.9227 11.4013 24.2557 11.4013 23.4356C10.5812 23.4356 9.91416 22.7685 9.91416 21.9484C9.91416 21.1283 10.5812 20.4613 11.4013 20.4613C11.4013 19.6412 12.0683 18.9742 12.8884 18.9742C13.7085 18.9742 14.3755 19.6412 14.3755 20.4613C15.1956 20.4613 15.8627 21.1283 15.8627 21.9484ZM14.8712 21.9484C14.8712 21.6744 14.6496 21.4527 14.3755 21.4527H13.3841V20.4613C13.3841 20.1873 13.1624 19.9656 12.8884 19.9656C12.6144 19.9656 12.3927 20.1873 12.3927 20.4613V21.4527H11.4013C11.1273 21.4527 10.9056 21.6744 10.9056 21.9484C10.9056 22.2225 11.1273 22.4441 11.4013 22.4441H12.3927V23.4356C12.3927 23.7096 12.6144 23.9313 12.8884 23.9313C13.1624 23.9313 13.3841 23.7096 13.3841 23.4356V22.4441H14.3755C14.6496 22.4441 14.8712 22.2225 14.8712 21.9484ZM18.3412 21.9484H17.3498C17.0758 21.9484 16.8541 22.1701 16.8541 22.4441C16.8541 22.7182 17.0758 22.9398 17.3498 22.9398H18.3412C18.6152 22.9398 18.8369 22.7182 18.8369 22.4441C18.8369 22.1701 18.6152 21.9484 18.3412 21.9484Z" fill="#F2F2F2"/>
</svg>
