<svg width="37" height="37" viewBox="0 0 37 37" fill="none" xmlns="http://www.w3.org/2000/svg">
<circle cx="18.0258" cy="18.9742" r="18.0258" fill="#9D0000"/>
<path d="M12.2567 11C11.0148 11 10 11.9952 10 13.213C10 14.4309 11.0148 15.426 12.2567 15.426C13.4986 15.426 14.5134 14.4309 14.5134 13.213C14.5134 11.9952 13.4986 11 12.2567 11ZM12.2567 11.7377C13.0921 11.7377 13.7612 12.3938 13.7612 13.213C13.7612 14.0322 13.0921 14.6884 12.2567 14.6884C11.4214 14.6884 10.7522 14.0322 10.7522 13.213C10.7522 12.3938 11.4214 11.7377 12.2567 11.7377ZM22.0357 15.7949C20.8331 15.7949 20.0158 16.2964 19.4029 16.8726V16.5326C19.4029 16.3394 19.2237 16.1637 19.0268 16.1637H16.0179C15.8209 16.1637 15.6418 16.3394 15.6418 16.5326V26.4912C15.6418 26.6843 15.8209 26.86 16.0179 26.86H19.2149C19.4118 26.86 19.591 26.6843 19.591 26.4912V20.9586C19.591 20.4918 19.741 20.0494 19.9612 19.7484C20.1814 19.4473 20.4476 19.2988 20.7193 19.2988H21.0954C21.3671 19.2988 21.6333 19.4473 21.8536 19.7484C22.0738 20.0494 22.2238 20.4918 22.2238 20.9586V26.4912C22.2238 26.6843 22.403 26.86 22.5999 26.86H25.7969C25.9938 26.86 26.173 26.6843 26.173 26.4912V20.0365C26.173 18.807 25.938 17.7396 25.268 16.9706C24.598 16.2015 23.5209 15.7949 22.0357 15.7949ZM10.717 16.1637C10.5321 16.1808 10.3753 16.3504 10.3761 16.5326V26.4912C10.3761 26.6843 10.5553 26.86 10.7522 26.86H13.9492C14.1462 26.86 14.3253 26.6843 14.3253 26.4912V16.5326C14.3253 16.3394 14.1462 16.1637 13.9492 16.1637C12.8729 16.1637 11.7906 16.1637 10.717 16.1637ZM22.0357 16.5326C23.3849 16.5326 24.19 16.8726 24.6921 17.4489C25.1941 18.0251 25.4208 18.9015 25.4208 20.0365V26.1223H22.976V20.9586C22.976 20.3424 22.7884 19.7644 22.4647 19.3219C22.1411 18.8794 21.6572 18.5612 21.0954 18.5612H20.7193C20.1575 18.5612 19.6737 18.8794 19.35 19.3219C19.0264 19.7644 18.8387 20.3424 18.8387 20.9586V23.1716C18.9094 23.1716 18.7655 23.1716 18.8387 23.1716V23.4361V23.9093V24.647C18.9094 24.647 18.7655 24.6469 18.8387 24.647V25.3847V26.1223H16.394V16.9014H18.6507V17.8235C18.6506 17.9752 18.7563 18.1215 18.9023 18.1717C19.0483 18.222 19.224 18.1725 19.3206 18.054C19.9521 17.282 20.625 16.5326 22.0357 16.5326ZM11.1284 16.9014H13.5731V23.1716V23.9093V24.647V25.3847V26.1223H11.1284V16.9014Z" fill="#F2F2F2"/>
</svg>
