<svg width="37" height="37" viewBox="0 0 37 37" fill="none" xmlns="http://www.w3.org/2000/svg">
<circle cx="18.0258" cy="18.0258" r="18.0258" fill="#9D0000"/>
<path d="M20.8186 10H14.2421C13.9127 10.0003 13.597 10.1293 13.3642 10.3586C13.1313 10.5878 13.0003 10.8987 13 11.223V24.637C13.0003 24.9613 13.1313 25.2722 13.3642 25.5014C13.597 25.7307 13.9127 25.8597 14.2421 25.86H20.8186C21.1479 25.8597 21.4636 25.7307 21.6965 25.5014C21.9293 25.2722 22.0603 24.9613 22.0606 24.637V11.223C22.0603 10.8987 21.9293 10.5878 21.6965 10.3586C21.4636 10.1293 21.1479 10.0003 20.8186 10V10ZM15.5168 10.4956H19.5438V10.8673C19.5448 10.9002 19.5391 10.9329 19.5268 10.9634C19.5145 10.9939 19.496 11.0216 19.4724 11.0449C19.4488 11.0681 19.4207 11.0863 19.3897 11.0984C19.3586 11.1105 19.3254 11.1162 19.2921 11.1152H15.7685C15.7352 11.1162 15.702 11.1105 15.671 11.0984C15.64 11.0863 15.6118 11.0681 15.5882 11.0449C15.5646 11.0216 15.5461 10.9939 15.5339 10.9634C15.5216 10.9329 15.5158 10.9002 15.5168 10.8673V10.4956ZM21.5573 24.637C21.5566 24.8297 21.4786 25.0144 21.3402 25.1506C21.2018 25.2869 21.0143 25.3637 20.8186 25.3644H14.2421C14.0464 25.3637 13.8588 25.2869 13.7205 25.1506C13.5821 25.0144 13.504 24.8297 13.5034 24.637V11.223C13.504 11.0303 13.5821 10.8456 13.7205 10.7094C13.8588 10.5731 14.0464 10.4963 14.2421 10.4956H15.0135V10.8673C15.0125 10.9652 15.0313 11.0624 15.0689 11.153C15.1065 11.2437 15.1621 11.326 15.2324 11.3952C15.3027 11.4645 15.3863 11.5192 15.4784 11.5562C15.5705 11.5932 15.6691 11.6118 15.7685 11.6108H19.2921C19.3915 11.6118 19.4902 11.5932 19.5823 11.5562C19.6743 11.5192 19.758 11.4645 19.8283 11.3952C19.8986 11.326 19.9542 11.2437 19.9917 11.153C20.0293 11.0624 20.0482 10.9652 20.0472 10.8673V10.4956H20.8186C21.0143 10.4963 21.2018 10.5731 21.3402 10.7094C21.4786 10.8456 21.5566 11.0303 21.5573 11.223V24.637Z" fill="#F2F2F2"/>
</svg>
