<svg width="37" height="38" viewBox="0 0 37 38" fill="none" xmlns="http://www.w3.org/2000/svg">
<circle cx="18.0258" cy="18.9914" r="18.0258" fill="#9D0000"/>
<path d="M24.2176 27.337H12.8992C12.4469 27.337 12.0132 27.1573 11.6933 26.8375C11.3735 26.5176 11.1938 26.0838 11.1938 25.6315V18.429H24.8998C25.1802 18.429 25.4491 18.5404 25.6474 18.7386C25.8457 18.9369 25.9571 19.2059 25.9571 19.4863V19.9866C25.9571 20.1373 25.8972 20.2819 25.7906 20.3885C25.684 20.4952 25.5394 20.5551 25.3886 20.5551C25.2379 20.5551 25.0933 20.4952 24.9867 20.3885C24.8801 20.2819 24.8202 20.1373 24.8202 19.9866V19.5659H12.3137V25.6031C12.3137 25.7539 12.3736 25.8985 12.4802 26.0051C12.5868 26.1117 12.7314 26.1716 12.8822 26.1716H24.2176C24.3684 26.1716 24.5129 26.1117 24.6196 26.0051C24.7262 25.8985 24.7861 25.7539 24.7861 25.6031V24.0625C24.7861 23.9118 24.846 23.7672 24.9526 23.6606C25.0592 23.554 25.2038 23.4941 25.3545 23.4941C25.5053 23.4941 25.6499 23.554 25.7565 23.6606C25.8631 23.7672 25.923 23.9118 25.923 24.0625V25.6088C25.926 25.8347 25.8841 26.0589 25.7998 26.2684C25.7154 26.478 25.5903 26.6687 25.4316 26.8294C25.2729 26.9902 25.0839 27.1179 24.8755 27.205C24.6671 27.2921 24.4435 27.337 24.2176 27.337Z" fill="#F2F2F2"/>
<path d="M11.1767 18.8553L10.307 15.4444C10.2549 15.2514 10.2417 15.05 10.2683 14.8518C10.2948 14.6537 10.3605 14.4628 10.4616 14.2903C10.5626 14.1178 10.697 13.9672 10.8569 13.8472C11.0168 13.7271 11.1989 13.6401 11.3928 13.5912L22.7964 10.692C22.9882 10.6434 23.1878 10.6331 23.3836 10.6616C23.5795 10.6902 23.7678 10.7571 23.9378 10.8584C24.1078 10.9598 24.2561 11.0937 24.3744 11.2524C24.4926 11.4111 24.5784 11.5916 24.6269 11.7835L25.2408 14.1881C25.2749 14.3229 25.2821 14.463 25.2619 14.6005C25.2418 14.7381 25.1947 14.8703 25.1235 14.9896C25.0522 15.1089 24.9581 15.213 24.8465 15.296C24.735 15.3789 24.6082 15.439 24.4734 15.4729L11.1767 18.8553ZM23.1943 11.7835H23.1033L11.6713 14.6941C11.5763 14.7182 11.4948 14.779 11.4447 14.8633C11.3946 14.9475 11.38 15.0482 11.4041 15.1432L11.9726 17.4739L24.1209 14.3928L23.5524 12.062C23.5322 11.9824 23.486 11.9117 23.4212 11.8613C23.3563 11.8109 23.2765 11.7835 23.1943 11.7835Z" fill="#F2F2F2"/>
<path d="M17.8477 12.7976L16.7458 13.0776L17.6476 16.6258L18.7495 16.3458L17.8477 12.7976Z" fill="#F2F2F2"/>
<path d="M21.1257 11.7656L20.0238 12.0457L20.9256 15.5938L22.0275 15.3138L21.1257 11.7656Z" fill="#F2F2F2"/>
<path d="M14.5108 13.5795L13.4089 13.8594L14.31 17.4077L15.412 17.1278L14.5108 13.5795Z" fill="#F2F2F2"/>
</svg>
