<svg width="37" height="38" viewBox="0 0 37 38" fill="none" xmlns="http://www.w3.org/2000/svg">
<circle cx="18.7468" cy="19.0085" r="18.0258" fill="#9D0000"/>
<path d="M18.2572 20.9409C18.2097 20.9099 18.1678 20.8702 18.1338 20.823L16.328 18.3113C16.0285 17.8947 16.1256 17.3157 16.545 17.0181C16.7032 16.9058 16.8928 16.8455 17.0873 16.8455H20.4062C20.9215 16.8455 21.3393 17.2605 21.3393 17.7725C21.3393 17.9657 21.2785 18.1541 21.1655 18.3113L19.3597 20.823C19.3258 20.8702 19.2838 20.9099 19.2363 20.9409C19.429 22.5503 20.8074 23.7982 22.4792 23.7982C24.2828 23.7982 25.745 22.3456 25.745 20.5536C25.745 20.2976 25.9539 20.0901 26.2115 20.0901C26.4692 20.0901 26.6781 20.2976 26.6781 20.5536C26.6781 22.8576 24.7982 24.7253 22.4792 24.7253V26.1158C22.4792 28.1638 20.8081 29.824 18.7468 29.824C16.6854 29.824 15.0144 28.1638 15.0144 26.1158V24.7253C12.6954 24.7253 10.8154 22.8576 10.8154 20.5536C10.8154 20.2976 11.0243 20.0901 11.282 20.0901C11.5396 20.0901 11.7485 20.2976 11.7485 20.5536C11.7485 22.3456 13.2107 23.7982 15.0144 23.7982C16.6861 23.7982 18.0645 22.5503 18.2572 20.9409ZM19.2133 25.8841V23.3347C19.2133 23.0787 19.0044 22.8712 18.7468 22.8712C18.4891 22.8712 18.2802 23.0787 18.2802 23.3347V25.8841C18.2802 26.1401 18.4891 26.3476 18.7468 26.3476C19.0044 26.3476 19.2133 26.1401 19.2133 25.8841Z" fill="#F2F2F2"/>
</svg>
