<svg width="37" height="37" viewBox="0 0 37 37" fill="none" xmlns="http://www.w3.org/2000/svg">
<circle cx="18.0258" cy="18.0258" r="18.0258" fill="#9D0000"/>
<path d="M17.5749 20.3978C15.3498 20.3978 13.2559 20.0739 11.8302 19.5092C11.6574 19.4408 11.5726 19.2453 11.6404 19.0721C11.6502 19.0472 11.6799 18.9714 11.6799 18.9231C11.6799 18.7382 11.5283 18.5878 11.3418 18.5878C11.2348 18.5878 11.1373 18.6431 11.0743 18.7394C11.0212 18.8207 10.9357 18.8751 10.8397 18.8888C10.7437 18.9024 10.6465 18.874 10.5729 18.8108C10.1981 18.4888 10 18.1122 10 17.7217C10 15.9836 13.9028 15.0457 17.5749 15.0457C19.9907 15.0457 22.1927 15.4126 23.6163 16.0523C23.6997 16.0898 23.7643 16.1596 23.7953 16.2456C23.8263 16.3317 23.8211 16.4267 23.7809 16.5088C23.7743 16.5223 23.7682 16.5508 23.7682 16.5685C23.7682 16.6385 23.8213 16.6955 23.8865 16.6955C23.9245 16.6955 23.958 16.6779 23.9761 16.6483C24.0257 16.5673 24.1072 16.5109 24.2005 16.4932C24.2938 16.4754 24.3902 16.498 24.4661 16.5552C25.0442 16.9912 25.1656 17.4302 25.1656 17.7217C25.1656 18.5185 24.3497 19.2022 22.8062 19.6989C21.4055 20.1496 19.5476 20.3978 17.5749 20.3978ZM12.3516 18.9837C13.691 19.4552 15.5718 19.7229 17.5749 19.7229C19.4795 19.7229 21.2641 19.4862 22.5999 19.0563C23.7667 18.6809 24.4915 18.1695 24.4915 17.7217C24.4915 17.5578 24.3907 17.4029 24.266 17.2737C24.1524 17.3363 24.0227 17.3704 23.8865 17.3704C23.4496 17.3704 23.0941 17.0106 23.0941 16.5684C23.0941 16.567 23.0941 16.5655 23.0941 16.564C21.7613 16.0336 19.7276 15.7205 17.5749 15.7205C13.2993 15.7205 10.674 16.8861 10.674 17.7217C10.674 17.8507 10.7285 17.971 10.8029 18.0752C10.9616 17.9706 11.1479 17.9129 11.3418 17.9129C11.8999 17.9129 12.3539 18.3661 12.3539 18.9231C12.354 18.9436 12.3531 18.9638 12.3516 18.9837Z" fill="#F2F2F2"/>
<path d="M17.5592 25.4596C17.5564 25.4596 17.5535 25.4595 17.5506 25.4595C16.7753 25.4397 16.1105 24.6014 15.6278 23.0351C15.1879 21.6073 14.9456 19.7204 14.9456 17.7218C14.9456 15.0292 15.4066 12.5121 16.1487 11.1527C16.2362 10.9925 16.435 10.931 16.5974 11.0139C16.6283 11.0296 16.6671 11.0404 16.6813 11.0412C16.7452 11.0412 16.7983 10.9842 16.7983 10.9141C16.7983 10.8716 16.7836 10.8416 16.7758 10.8349C16.7004 10.7708 16.6569 10.6767 16.6569 10.5777C16.6569 10.4787 16.7004 10.3846 16.7758 10.3205C17.0295 10.1048 17.2909 10 17.5749 10C18.3608 10 19.0334 10.8291 19.5198 12.3978C19.9611 13.8212 20.2042 15.7119 20.2042 17.7218C20.2042 20.7945 19.6565 23.4662 18.7749 24.6944C18.7169 24.7752 18.6262 24.8262 18.5271 24.8339C18.4281 24.8416 18.3305 24.8049 18.2608 24.7338C18.2245 24.6968 18.1676 24.6747 18.1088 24.6747C17.9561 24.6747 17.8649 24.8044 17.8649 24.9299C17.8649 24.9531 17.8764 25.0002 17.8866 25.0417C17.9116 25.1438 17.8876 25.2518 17.8218 25.3337C17.7576 25.4134 17.661 25.4596 17.5592 25.4596ZM16.62 11.7133C15.9996 13.027 15.6196 15.289 15.6196 17.7218C15.6196 19.6547 15.8513 21.471 16.2719 22.8362C16.5841 23.8492 16.9366 24.4029 17.2361 24.641C17.3562 24.2691 17.702 23.9998 18.1087 23.9998C18.2056 23.9998 18.301 24.0153 18.3911 24.0449C19.0886 22.8315 19.5301 20.4113 19.5301 17.7218C19.5301 15.7779 19.2978 13.9582 18.8761 12.5979C18.4364 11.1801 17.9157 10.6749 17.5749 10.6749C17.5407 10.6749 17.4973 10.6784 17.4442 10.6957C17.4627 10.7653 17.4723 10.8386 17.4723 10.9141C17.4723 11.3563 17.1169 11.7161 16.68 11.7161C16.6597 11.7161 16.6397 11.7151 16.62 11.7133Z" fill="#F2F2F2"/>
<path d="M13.1825 23.5536C12.7738 23.5536 12.4486 23.4333 12.216 23.196C11.6658 22.6346 11.7679 21.5646 12.5114 20.1016C13.1888 18.7686 14.3273 17.2535 15.7172 15.8355C18.021 13.4851 20.5385 11.9059 21.9815 11.9059C22.3912 11.9059 22.7168 12.0262 22.9494 12.2635C23.4992 12.8243 23.397 13.8924 22.654 15.3521C21.9786 16.6789 20.8404 18.1958 19.4489 19.6233C18.3129 20.7759 17.1219 21.7573 16.0035 22.4627C15.2145 22.9604 14.0846 23.5536 13.1825 23.5536ZM21.9815 12.5808C20.7276 12.5808 18.3494 14.1136 16.1983 16.3082C13.1658 19.4021 12.1153 22.1297 12.697 22.7232C12.7981 22.8264 12.9615 22.8787 13.1825 22.8787C14.4253 22.8787 16.8043 21.3456 18.9679 19.1506C20.3118 17.7718 21.4081 16.3135 22.0534 15.0457C22.7285 13.7195 22.7104 12.9831 22.4684 12.7362C22.3673 12.6331 22.2035 12.5808 21.9815 12.5808Z" fill="#F2F2F2"/>
<path d="M21.9816 23.5536C20.5385 23.5536 18.0211 21.9744 15.7172 19.624C14.3251 18.1958 13.1869 16.6789 12.5115 15.3521C11.7685 13.8924 11.6663 12.8243 12.216 12.2635C12.4486 12.0262 12.7738 11.9059 13.1825 11.9059C14.0847 11.9059 15.2145 12.4991 16.0035 12.9967C17.1219 13.7021 18.3129 14.6835 19.4476 15.8348C20.8382 17.2535 21.9767 18.7685 22.6541 20.1015C23.3976 21.5646 23.4997 22.6346 22.9495 23.196C22.7169 23.4333 22.3913 23.5536 21.9816 23.5536ZM13.1825 12.5808C12.9615 12.5808 12.7982 12.6331 12.6971 12.7362C12.4551 12.9831 12.437 13.7195 13.1121 15.0456C13.7573 16.3134 14.8537 17.7718 16.199 19.1519C18.3495 21.3459 20.7277 22.8787 21.9817 22.8787C22.2036 22.8787 22.3674 22.8264 22.4685 22.7232C23.0503 22.1297 21.9998 19.4021 18.9673 16.3082C16.8044 14.1139 14.4254 12.5808 13.1825 12.5808Z" fill="#F2F2F2"/>
<path d="M16.68 11.716C16.2431 11.716 15.8877 11.3562 15.8877 10.914C15.8877 10.4718 16.2431 10.1121 16.68 10.1121C17.1169 10.1121 17.4723 10.4718 17.4723 10.914C17.4723 11.3563 17.1169 11.716 16.68 11.716ZM16.68 10.787C16.6147 10.787 16.5617 10.844 16.5617 10.9141C16.5617 10.9842 16.6147 11.0412 16.68 11.0412C16.7452 11.0412 16.7983 10.9842 16.7983 10.9141C16.7983 10.844 16.7452 10.787 16.68 10.787Z" fill="#F2F2F2"/>
<path d="M23.8865 17.3704C23.4496 17.3704 23.0942 17.0107 23.0942 16.5685C23.0942 16.1262 23.4496 15.7665 23.8865 15.7665C24.3234 15.7665 24.6788 16.1262 24.6788 16.5685C24.6788 17.0107 24.3234 17.3704 23.8865 17.3704ZM23.8865 16.4414C23.8213 16.4414 23.7682 16.4984 23.7682 16.5685C23.7682 16.6386 23.8213 16.6956 23.8865 16.6956C23.9518 16.6956 24.0048 16.6386 24.0048 16.5685C24.0048 16.4984 23.9517 16.4414 23.8865 16.4414Z" fill="#F2F2F2"/>
<path d="M18.1087 25.86C17.6025 25.86 17.1908 25.4427 17.1908 24.9299C17.1908 24.417 17.6026 23.9998 18.1087 23.9998C18.6063 23.9998 19.0266 24.4257 19.0266 24.9299C19.0266 25.434 18.6063 25.86 18.1087 25.86ZM18.1087 24.6746C17.956 24.6746 17.8648 24.8044 17.8648 24.9298C17.8648 25.0553 17.956 25.185 18.1087 25.185C18.2364 25.185 18.3526 25.0634 18.3526 24.9298C18.3526 24.7963 18.2364 24.6746 18.1087 24.6746Z" fill="#F2F2F2"/>
<path d="M11.3418 19.9333C10.7924 19.9333 10.3454 19.4801 10.3454 18.9231C10.3454 18.366 10.7924 17.9128 11.3418 17.9128C11.8999 17.9128 12.3539 18.366 12.3539 18.9231C12.3539 19.4801 11.8999 19.9333 11.3418 19.9333ZM11.3418 18.5878C11.167 18.5878 11.0194 18.7413 11.0194 18.9231C11.0194 19.1048 11.1671 19.2584 11.3418 19.2584C11.5282 19.2584 11.6799 19.108 11.6799 18.9231C11.6799 18.7382 11.5283 18.5878 11.3418 18.5878Z" fill="#F2F2F2"/>
<path d="M17.5777 19.0277C16.8755 19.0277 16.3043 18.4431 16.3043 17.7246C16.3043 17.0238 16.8874 16.4318 17.5777 16.4318C18.2855 16.4318 18.8613 17.0117 18.8613 17.7246C18.8613 18.4431 18.2855 19.0277 17.5777 19.0277ZM17.5777 17.1067C17.2527 17.1067 16.9783 17.3896 16.9783 17.7246C16.9783 18.0651 17.2528 18.3529 17.5777 18.3529C17.9081 18.3529 18.1872 18.0652 18.1872 17.7246C18.1872 17.3896 17.9081 17.1067 17.5777 17.1067Z" fill="#F2F2F2"/>
<path d="M11.348 24.1728C11.2594 24.1728 11.1724 24.1367 11.1098 24.0739C11.0471 24.0112 11.011 23.9241 11.011 23.8354C11.011 23.7466 11.0471 23.6596 11.1098 23.5968C11.1724 23.534 11.2594 23.4979 11.348 23.4979C11.4367 23.4979 11.5236 23.534 11.5863 23.5968C11.649 23.6596 11.685 23.7466 11.685 23.8354C11.685 23.9241 11.649 24.0112 11.5863 24.0739C11.5236 24.1367 11.4367 24.1728 11.348 24.1728Z" fill="#F2F2F2"/>
<path d="M13.7071 24.8476C13.6185 24.8476 13.5315 24.8115 13.4689 24.7487C13.4062 24.686 13.3701 24.5989 13.3701 24.5102C13.3701 24.4214 13.4062 24.3344 13.4689 24.2716C13.5315 24.2088 13.6185 24.1727 13.7071 24.1727C13.7958 24.1727 13.8827 24.2088 13.9454 24.2716C14.008 24.3344 14.0441 24.4214 14.0441 24.5102C14.0441 24.5989 14.0081 24.686 13.9454 24.7487C13.8827 24.8115 13.7958 24.8476 13.7071 24.8476Z" fill="#F2F2F2"/>
<path d="M13.7071 11.3498C13.6185 11.3498 13.5315 11.3137 13.4689 11.2509C13.4062 11.1882 13.3701 11.1011 13.3701 11.0124C13.3701 10.9236 13.4062 10.8366 13.4689 10.7738C13.5315 10.711 13.6185 10.6749 13.7071 10.6749C13.7958 10.6749 13.8827 10.711 13.9454 10.7738C14.0081 10.8366 14.0441 10.9236 14.0441 11.0124C14.0441 11.1011 14.0081 11.1882 13.9454 11.2509C13.8827 11.3137 13.7958 11.3498 13.7071 11.3498Z" fill="#F2F2F2"/>
<path d="M11.348 12.0247C11.2594 12.0247 11.1724 11.9886 11.1098 11.9259C11.0471 11.8631 11.011 11.776 11.011 11.6873C11.011 11.5986 11.0471 11.5115 11.1098 11.4487C11.1724 11.386 11.2594 11.3499 11.348 11.3499C11.4367 11.3499 11.5236 11.386 11.5863 11.4487C11.649 11.5115 11.685 11.5986 11.685 11.6873C11.685 11.776 11.649 11.8631 11.5863 11.9259C11.5236 11.9886 11.4367 12.0247 11.348 12.0247Z" fill="#F2F2F2"/>
<path d="M24.1545 13.7119C24.0659 13.7119 23.9789 13.6758 23.9162 13.613C23.8536 13.5502 23.8175 13.4632 23.8175 13.3744C23.8175 13.2857 23.8535 13.1986 23.9162 13.1359C23.9789 13.0731 24.0659 13.037 24.1545 13.037C24.2432 13.037 24.3301 13.0731 24.3928 13.1359C24.4554 13.1986 24.4915 13.2857 24.4915 13.3744C24.4915 13.4632 24.4555 13.5502 24.3928 13.613C24.3301 13.6758 24.2432 13.7119 24.1545 13.7119Z" fill="#F2F2F2"/>
<path d="M24.8285 22.1482C24.7399 22.1482 24.653 22.1121 24.5903 22.0493C24.5276 21.9865 24.4915 21.8995 24.4915 21.8107C24.4915 21.722 24.5276 21.6349 24.5903 21.5721C24.653 21.5094 24.7399 21.4733 24.8285 21.4733C24.9175 21.4733 25.0041 21.5093 25.0668 21.5721C25.1295 21.6349 25.1656 21.722 25.1656 21.8107C25.1656 21.8995 25.1295 21.9865 25.0668 22.0493C25.0041 22.1121 24.9172 22.1482 24.8285 22.1482Z" fill="#F2F2F2"/>
<path d="M21.7954 24.8476C21.7068 24.8476 21.6198 24.8115 21.5571 24.7487C21.4945 24.686 21.4584 24.5989 21.4584 24.5102C21.4584 24.4214 21.4944 24.3344 21.5571 24.2716C21.6199 24.2088 21.7068 24.1727 21.7954 24.1727C21.8841 24.1727 21.971 24.2088 22.0337 24.2716C22.0963 24.3344 22.1324 24.4214 22.1324 24.5102C22.1324 24.5989 22.0964 24.686 22.0337 24.7487C21.971 24.8115 21.8841 24.8476 21.7954 24.8476Z" fill="#F2F2F2"/>
<path d="M24.1545 12.0247C24.0659 12.0247 23.9789 11.9886 23.9162 11.9259C23.8536 11.8631 23.8175 11.776 23.8175 11.6873C23.8175 11.5986 23.8535 11.5115 23.9162 11.4487C23.9789 11.386 24.0659 11.3499 24.1545 11.3499C24.2432 11.3499 24.3301 11.386 24.3928 11.4487C24.4555 11.5115 24.4915 11.5986 24.4915 11.6873C24.4915 11.776 24.4555 11.8631 24.3928 11.9259C24.3301 11.9886 24.2432 12.0247 24.1545 12.0247Z" fill="#F2F2F2"/>
</svg>
